<?xml version="1.0" encoding="utf-8"?>
<svg version="1.1" xmlns="http://www.w3.org/2000/svg" viewBox="192 208 417 417" xml:space="preserve">
    <style type="text/css">
      .st0{fill:#FFFFFF;}
    </style>
    <g id="Layer_2"></g>
    <g id="Layer_1">
      <path d="M608.43,401.13c-10.22-5.48-21.38-8.78-32.99-11.22c-26.94-5.67-55.5-3.79-83.03,3.86c-9.51,2.64-18.72,6.08-27.98,9.4
        c6.54,6.09,11.78,13.75,15.64,21.71c7.08,14.58,11,30.49,12.29,46.61c1.55,19.36-4.21,36.76-10.25,54.9
        c-3.22,9.68-5.57,19.28-5.49,29.54c0.08,9.33,1.95,18.44,5.01,27.24c2.52,7.24,5.99,14.27,10.27,20.78
        C561.24,570.06,609,498.86,609,416.5C609,411.33,608.8,406.2,608.43,401.13z"/>
      <path d="M464.53,590.98c-7.4-19.45-8.74-40.84-3.22-60.94c4.95-18.01,13.21-34.69,12.52-53.78c-0.5-13.93-3.71-28.95-10-41.9
        c-5.24-10.81-12.17-19.98-22.47-23.83c-0.92,0.24-1.85,0.47-2.77,0.69c-18.57,4.41-37.99,7.23-57.05,8.22
        c-40.38,2.1-80.8-7.35-121.02-0.83c-23.23,3.76-45.5,11.11-67.41,19.52C203.94,543.12,292.66,625,400.5,625
        c26.1,0,51.08-4.81,74.11-13.57C470.63,604.98,467.25,598.14,464.53,590.98z"/>
      <g>
        <g>
          <path class="st0" d="M254.69,510.84c4.74,16.45,10.35,32.04,18.65,47.09c1.27,2.27,2.8,4.21,4.52,5.92
            c0.85,0.83,1.5,1.56,1.96,2.19c0.46,0.63,1.21,1.83,2.27,3.57c1.65,2.7,2.59,4.18,2.72,4.5c0.13,0.32-0.16,0.19-0.85-0.4
            c-5.78-4.9-8.55-7.52-13.81-13.06c-0.73-0.77-1.45-1.56-2.16-2.35c-0.71-0.79-1.83-2.05-3.31-3.83c-0.99-1.18-1.55-1.89-1.7-2.12
            c-0.15-0.22-0.14-0.32,0.02-0.31c0.23,0.02,0.29-0.14,0.13-0.45c-0.16-0.31-0.57-0.93-1.24-1.87
            c-17.66-26.66-28.26-54.82-34.72-86.04c-0.25-1.38-0.58-2.4-1.01-3.05c-0.42-0.65-1.21-1.21-2.32-1.67
            c-0.8-0.33-1.35-1.49-1.63-3.49c-0.03-0.21-0.25-1.43-0.41-3.49c-0.17-2.21,0.45-3.67,1.6-4.14c10.29-4.21,15.48-6.22,26.02-9.57
            c0.79-0.25,1.39-0.16,1.82,0.28c0.42,0.44,0.94,1.66,1.54,3.74c0.1,0.36,0.25,0.86,0.44,1.52c2.39,7.95,3.58,12.29,5.92,20.67
            c0.36,1.32,0.63,2.47,0.8,3.43c0.37,2.05-0.17,3.17-1.6,3.36c-1.91,0.26-3.24-0.31-3.99-1.73c-0.75-1.41-2.15-4.93-4.24-10.6
            c-1.27-3.46-2.31-5.69-3.13-6.74c-0.81-1.05-1.84-1.39-3.08-1.02c-0.35,0.1-0.97,0.38-1.86,0.83
            c2.99,16.72,6.33,33.29,10.33,49.8c0.85,0.03,1.28,0.05,2.13,0.08c1.12,0.04,1.77-0.45,1.98-1.51c0.2-1.06,0.11-2.91-0.23-5.56
            c-0.39-3-0.54-5-0.49-5.87c0.05-0.87,0.93-1.37,2.63-1.45c1.17-0.06,1.94,0.15,2.28,0.63c0.35,0.48,0.66,1.43,0.93,2.86
            c2.04,10.85,4.11,21.65,6.43,32.45c0.31,1.34,0.42,2.18,0.32,2.54c-0.11,0.36-0.71,0.42-1.8,0.18c-1.32-0.29-2.27-0.96-2.88-1.98
            c-0.6-1.02-1.5-3.39-2.62-7.12c-1.14-3.79-2.58-5.8-4.32-5.99C255.91,510.97,255.5,510.93,254.69,510.84z"/>
          <path class="st0" d="M274.72,429.27c3.62-1.12,9.09,1.53,14.06,7.83c6.87,8.7,11.25,19.56,14.52,30.13
            c5.25,16.96,7.2,34.11,7.61,51.62c0.46,19.56,1.06,39.32,3.86,58.86c2.05,14.31,1.29,19.02-4.09,15.63
            c-9.44-5.95-16.42-17.13-22.36-26.86c-10-16.37-16.92-34.89-20.31-53.67c-3.4-18.84-5.29-39.04-4.23-58.01
            C264.28,445.61,266,431.97,274.72,429.27z M284.15,452.41c-1.8-9-4.12-12.94-6.55-12.54c-1.02,0.16-1.63,1.33-1.88,3.54
            c-0.25,2.21-0.07,4.87,0.56,8.01c7.29,39.95,8.2,81.31,21.96,119.74c1.47,3.7,3,6.6,4.42,8.78c1.43,2.18,2.56,3.47,3.35,3.88
            c0.89,0.45,1.1-0.23,0.71-2.13c-0.4-1.89-1.13-4.19-2.16-6.89C291.05,535.37,291.49,493.21,284.15,452.41z"/>
          <path class="st0" d="M331.37,530.75c-0.16,18.85,1.93,35.92,6.81,54.17c0.76,2.46,1.38,4.11,1.79,4.97
            c0.41,0.86,1.05,1.81,1.93,2.85c1.14,1.35,2.23,3.44,3.35,6.18c1.62,3.98,2.59,6.32,2.73,7.15c0.14,0.83-0.17,1.14-0.91,0.94
            c-6.77-1.8-10.09-2.9-16.57-5.43c-0.92-0.36-2.2-2.17-3.71-5.52c-1.45-3.23-2.27-5.35-2.58-6.28c-0.31-0.93-0.32-1.52-0.04-1.77
            c0.83-0.98,0.44-3.62-0.97-7.99c-11.77-41.57-7.08-85.16-15.11-127.56c-1.09-4.96-2.58-7.82-4.31-8.82
            c-0.88-0.56-1.49-1.12-1.82-1.69c-0.33-0.56-0.86-2.24-1.66-4.86c-1.61-5.25-1.99-7.51-0.77-7.52c9.71-0.14,14.57,0.16,24.3,0.76
            c4.84,0.3,11.53,3.75,18.66,12.76c8.99,11.36,12.58,24.8,14.83,38.61c2.43,14.93-0.36,34.29-14.03,43.76
            c11.19,8.57,10.69,27.92,12.14,40.4c1.3,10.72,2.47,16.08,5.77,26.32c0.69,2.15,1.59,3.8,2.61,4.94
            c1.22,1.36,2.32,3.38,3.38,5.98c1.66,4.08,2.68,6.4,2.84,7.13c0.15,0.73-0.18,1.05-1.02,0.95c-4.49-0.52-6.71-0.86-11.11-1.69
            c-1.31-0.25-3.28-2.27-5.72-6.17c-2.44-3.9-4.73-8.7-6.55-14.35c-4.15-14.88-6.46-28.84-7.3-44.26
            c-0.11-8.76-1.45-13.28-4.96-13.7C332.56,530.89,332.16,530.84,331.37,530.75z M322.24,441.14c7.05,25.49,10.09,50.4,9.58,76.83
            c1.18,0.13,1.78,0.19,2.97,0.31c3.02,0.3,5.55-6.69,4.77-22.17c-0.77-12.56-2.47-25.07-5.09-37.38
            c-1.37-6.39-3.2-10.99-4.95-13.58c-1.75-2.59-3.68-3.86-5.72-3.94C323.17,441.17,322.86,441.16,322.24,441.14z"/>
          <path class="st0" d="M396,601.2c0.78,8.59-0.6,12.97-4.05,12.73c-10.95-0.76-19.68-16.17-24.46-25.96
            c-10.12-20.71-10.82-42.32-8.78-64.79c2.13-23.46,2.22-46.95,1.12-70.45c-0.85-18.04-1.9-22.43,3.95-22.48
            c2.81-0.02,6.57,0.85,11,3.31c1.37,0.73,2.24,1.11,2.63,1.08c0.54-0.04,0.3-1.07-0.91-2.72c-1.11-1.5-1.33-2.12-0.45-2.19
            c0.21-0.02,0.31-0.02,0.52-0.04c0.62,0,0.93,0.01,1.56,0.01c1.19,0.12,2.99,0.91,5.11,2.88c8.94,8.89,14.22,20.97,18,32.81
            c1.21,3.74,1.84,6.3,2.07,7.63c0.49,2.74-0.19,4.25-1.91,4.49c-1.69,0.23-2.85-0.22-3.53-1.33c-0.67-1.12-2.24-5.17-5.37-11.93
            c-4.24-9.15-8.46-15.38-11.38-18.68c-2.92-3.3-5.29-4.7-6.88-4.61c-4.19,0.23-1.89,7.78,1.9,24.64
            c7.63,41.63-5.69,81.67,3.67,122.98c2.42,8.67,5.41,12.86,7.57,12.77c2.36-0.1,1.6-4.39-0.82-13.07
            c-5.64-19.27-5.47-39.61-1.99-59.23c0.6-3.81,0.45-6.23-0.48-7.27c-1-1.12-1.24-3.54-0.8-7.27c0.48-4.03,0.81-6.49,1.2-7.33
            c0.38-0.83,1.1-1.28,2.16-1.35c8.16-0.57,12.23-1.08,20.34-2.41c0.99-0.16,1.61,0.15,1.86,0.94c0.24,0.79,0.2,2.68-0.26,5.65
            c-0.48,3.12-0.99,5.2-1.39,6.29c-0.4,1.09-1.06,2.04-1.97,2.86c-1.3,1.16-2.26,3.3-2.88,6.43c-5.18,27.77-3.9,50.11,5.96,76.69
            c1.86,4.35,3.1,6.97,3.42,8.07c0.32,1.1,0.01,1.72-0.95,1.87c-0.87,0.14-1.58,0.07-2.12-0.18c-0.54-0.25-1.56-1.11-3.01-2.6
            C401.54,605.2,398.44,602.39,396,601.2z"/>
          <path class="st0" d="M417.14,436.76c10.58,21.27,14.42,41.36,12.24,64.95c1.27-0.34,1.9-0.51,3.16-0.87
            c0.87-0.24,1.58-0.88,2.12-1.91c0.54-1.03,1.18-3.08,1.67-6.24c0.86-5.59,0.92-9.12,1.1-10.25c0.18-1.13,0.52-1.77,1.02-1.92
            c2.48-0.72,3.88-0.91,4.24-0.52c0.35,0.39,0.68,2.3,0.59,5.76c-0.53,12.86-4.35,25.19-7.98,37.43c-0.64,2.31-1.17,3.88-1.64,4.69
            c-0.46,0.82-1.42,1.5-2.89,2.01c-0.96,0.34-1.5,0.08-1.6-0.75c-0.1-0.83,0.25-3.38,1.07-7.56c0.75-3.81,1.07-6.12,1-6.91
            c-0.08-0.79-0.45-1.09-1.11-0.89c-1.4,0.42-2.11,0.62-3.52,1.02c-7.15,28.21-8.49,50.06,0.57,78.04
            c0.85-0.27,1.27-0.41,2.11-0.69c1.3-0.44,1.79-1.75,1.55-3.97c-0.24-2.22-1.68-8.23-2.26-18.59c-0.24-4.35,0-7.29,0.38-8.78
            c0.37-1.49,1.18-2.46,2.37-2.93c1.64-0.65,2.5,0.55,2.81,3.61c0.09,0.92,0.19,2.28,0.33,4.08c0.9,10.63,2.12,15.86,5.66,25.93
            c1.62,4.58,2.76,7.22,3.03,8.15c0.27,0.93-0.02,1.57-0.91,1.92c-8.55,3.45-17.94,6.19-27.01,7.85c-0.7,0.13-1.35-0.18-1.93-0.93
            c-0.59-0.76-1.85-3.02-3.51-6.96c-1.06-2.5-1.26-4.46-0.7-5.83c0.9-1.99,0.83-4.46-0.06-7.41c-6.14-25.44-3.95-45.36,0.75-70.81
            c4.7-25.46,1.92-47.4-7.05-71.75c-0.66-1.39-2.03-2.63-4.08-3.72c-1.4-0.75-2.42-1.51-3.05-2.27c-0.63-0.76-1.8-2.69-3.85-5.25
            c-1.74-2.17-2.84-3.21-3.04-3.58c-0.2-0.37,0.12-0.59,0.98-0.71c9.37-1.21,18.9-3.09,28.04-5.51c0.69-0.18,1.44-0.17,2.23,0.05
            c0.79,0.22,2.17,0.87,3.95,2.26c7.57,6.02,13.56,16.34,16.93,25.25c0.59,1.45,0.94,2.45,1.09,2.98
            c0.57,2.04,0.05,3.33-1.45,3.78c-1.69,0.52-2.94,0.37-3.75-0.42c-0.81-0.79-1.95-3.03-3.72-6.58
            c-3.18-6.39-6.34-10.79-8.37-13.06c-2.03-2.27-3.55-3.16-4.4-2.95C419,436.31,418.38,436.46,417.14,436.76z"/>
        </g>
      </g>
      <path d="M274.88,398.08c21.18-1.73,42.42,0.27,63.56,1.66c21.47,1.42,42.55,1.56,63.93-1.12c18.41-2.31,36.62-6.1,54.14-12.27
        c19.35-6.82,38-13.58,58.45-16.52c27.1-3.9,54.42-2.34,80.65,5.86c3.3,1.03,6.69,2.22,10.08,3.57
        C588.12,281.88,502.94,208,400.5,208C285.35,208,192,301.35,192,416.5c0,0.72,0.02,1.43,0.03,2.14
        C218.79,408.64,246.08,400.43,274.88,398.08z"/>
      <circle class="st0" cx="511.36" cy="462.61" r="28.65"/>
      <circle class="st0" cx="546.94" cy="388.73" r="17.39"/>
      <circle class="st0" cx="574.08" cy="439.42" r="20.8"/>
      <circle class="st0" cx="528.03" cy="543.03" r="39.97"/>
      <circle class="st0" cx="586.35" cy="355.39" r="13.04"/>
    </g>
</svg>
