<?xml version="1.0" encoding="utf-8"?>
<svg version="1.1" xmlns="http://www.w3.org/2000/svg" viewBox="0 0 64 64" xml:space="preserve">
  <defs>
    <radialGradient id="bg" cx="34%" cy="28%" r="80%">
      <stop offset="0%" stop-color="#3a2010"/>
      <stop offset="55%" stop-color="#1f1108"/>
      <stop offset="100%" stop-color="#0a0503"/>
    </radialGradient>
    <radialGradient id="glow" cx="50%" cy="58%" r="55%">
      <stop offset="0%" stop-color="#f04f14" stop-opacity="0.55"/>
      <stop offset="100%" stop-color="#f04f14" stop-opacity="0"/>
    </radialGradient>
    <linearGradient id="mark" x1="0%" y1="0%" x2="100%" y2="100%">
      <stop offset="0%" stop-color="#fff8d2"/>
      <stop offset="55%" stop-color="#ffc93d"/>
      <stop offset="100%" stop-color="#f04f14"/>
    </linearGradient>
  </defs>

  <rect width="64" height="64" rx="14" fill="url(#bg)"/>
  <rect width="64" height="64" rx="14" fill="url(#glow)"/>

  <!-- sigla BrandForge: sfera fracturata, translatata/scalata din logo.svg (viewBox 192 208 417 417) -->
  <g transform="translate(-17.942,-19.938) scale(0.1247)">
    <path fill="#2a1608" d="M608.43,401.13c-10.22-5.48-21.38-8.78-32.99-11.22c-26.94-5.67-55.5-3.79-83.03,3.86c-9.51,2.64-18.72,6.08-27.98,9.4
      c6.54,6.09,11.78,13.75,15.64,21.71c7.08,14.58,11,30.49,12.29,46.61c1.55,19.36-4.21,36.76-10.25,54.9
      c-3.22,9.68-5.57,19.28-5.49,29.54c0.08,9.33,1.95,18.44,5.01,27.24c2.52,7.24,5.99,14.27,10.27,20.78
      C561.24,570.06,609,498.86,609,416.5C609,411.33,608.8,406.2,608.43,401.13z"/>
    <path fill="#2a1608" d="M464.53,590.98c-7.4-19.45-8.74-40.84-3.22-60.94c4.95-18.01,13.21-34.69,12.52-53.78c-0.5-13.93-3.71-28.95-10-41.9
      c-5.24-10.81-12.17-19.98-22.47-23.83c-0.92,0.24-1.85,0.47-2.77,0.69c-18.57,4.41-37.99,7.23-57.05,8.22
      c-40.38,2.1-80.8-7.35-121.02-0.83c-23.23,3.76-45.5,11.11-67.41,19.52C203.94,543.12,292.66,625,400.5,625
      c26.1,0,51.08-4.81,74.11-13.57C470.63,604.98,467.25,598.14,464.53,590.98z"/>
    <path fill="#2a1608" d="M274.88,398.08c21.18-1.73,42.42,0.27,63.56,1.66c21.47,1.42,42.55,1.56,63.93-1.12c18.41-2.31,36.62-6.1,54.14-12.27
      c19.35-6.82,38-13.58,58.45-16.52c27.1-3.9,54.42-2.34,80.65,5.86c3.3,1.03,6.69,2.22,10.08,3.57
      C588.12,281.88,502.94,208,400.5,208C285.35,208,192,301.35,192,416.5c0,0.72,0.02,1.43,0.03,2.14
      C218.79,408.64,246.08,400.43,274.88,398.08z"/>
    <circle fill="url(#mark)" cx="511.36" cy="462.61" r="28.65"/>
    <circle fill="url(#mark)" cx="546.94" cy="388.73" r="17.39"/>
    <circle fill="url(#mark)" cx="574.08" cy="439.42" r="20.8"/>
    <circle fill="url(#mark)" cx="528.03" cy="543.03" r="39.97"/>
    <circle fill="url(#mark)" cx="586.35" cy="355.39" r="13.04"/>
  </g>
</svg>
